<svg xmlns="http://www.w3.org/2000/svg" viewBox="0 0 67.59277 66.646">
  <defs>
    <style>
      .cls-1 {
        fill: #00ff85;
      }
    </style>
  </defs>
  <g id="Livello_2" data-name="Livello 2">
    <g id="Livello_1-2" data-name="Livello 1">
      <path class="cls-1" d="M26.9624,66.646,0,39.68311l21.93359-21.9336a28.17162,28.17162,0,0,1,3.77149-3.33789,2.12535,2.12535,0,0,1,2.51416,0,28.32611,28.32611,0,0,1,3.77148,3.33789l5.98194,5.98194L22.02051,39.68311,32.94434,50.60693a28.34976,28.34976,0,0,1,3.3374,3.77149,2.12535,2.12535,0,0,1,0,2.51416,28.16724,28.16724,0,0,1-3.3374,3.771Z"/>
      <path class="cls-1" d="M40.63037,52.646l-5.98193-5.98243a27.92871,27.92871,0,0,1-3.33789-3.771,2.12077,2.12077,0,0,1,0-2.51416,28.10812,28.10812,0,0,1,3.33789-3.77149L45.57178,25.68311,29.62012,9.73145l5.98193-5.98194a28.14436,28.14436,0,0,1,3.771-3.33789,2.12535,2.12535,0,0,1,2.51416,0,28.32611,28.32611,0,0,1,3.77148,3.33789l21.93408,21.9336Z"/>
    </g>
  </g>
</svg>
